Simulation
nRows=31
nColumns=15
endheader
time  TH_x TH_y TH_z SC_y  SC_z  SC_x  AC_y  AC_z  AC_x  GH_y  GH_z  GH_yy  EL_x  PS_y
5.382082397003745  0.000000  0.000000  0.000000  -42.63819570259431  15.119249527890702  21.613876971572022  55.0642412254585  18.442196655733518  17.52627161804569  3.502131028853893  55.56959787768578  1.0541295666801012  13.450094873645432  120.000000
5.422247191011236  0.000000  0.000000  0.000000  -42.80538230180733  15.113683585999969  21.55384321141796  55.076987289937286  18.287014296810767  17.145300693995267  4.0975112229177935  55.74742420887509  0.2969806521587005  13.472631438857318  120.000000
5.4624119850187265  0.000000  0.000000  0.000000  -42.85061816489883  15.102085047239411  21.301180872654964  55.10969919934755  18.114235850763176  16.670942217300894  4.754473447563228  55.73949295850611  -0.390134263222685  13.414598772487798  120.000000
5.502576779026217  0.000000  0.000000  0.000000  -42.77440459333005  15.081360333157244  20.844809805150668  55.17046731672623  17.916084058314997  16.10488713269932  5.474609614409894  55.5382619810279  -1.0108868810518947  13.29185479705265  120.000000
5.542741573033708  0.000000  0.000000  0.000000  -42.57887117768469  15.044457975076543  20.17582771731494  55.264658795959505  17.683830409205722  15.453176040784582  6.257163554209734  55.138460467411896  -1.5699593185962926  13.126564240713229  120.000000
5.582906367041199  0.000000  0.000000  0.000000  -42.26847667665897  14.980168191988197  19.28855251282529  55.39332982046758  17.408470368473107  14.72658602834633  7.099558302542471  54.538388190182864  -2.0704754414577167  12.943185470217188  120.000000
5.623071161048689  0.000000  0.000000  0.000000  -41.85087469292389  14.873599766746421  18.181762603705614  55.55219997300193  17.081796694876825  13.94039941259441  7.997365375861855  53.7411153973866  -2.511440696143638  12.764214256830524  120.000000
5.66323595505618  0.000000  0.000000  0.000000  -41.33734979597687  14.707244891707171  16.859996029915067  55.731454411483604  16.697780209870025  13.113757084877877  8.943880342860414  52.75502971430136  -2.885788042133815  12.606729834619953  120.000000
5.70340074906367  0.000000  0.000000  0.000000  -40.74248218283324  14.462661390880811  15.334450502089462  55.916588721856584  16.254003265058508  12.268449232616364  9.929536574027013  51.59344191106573  -3.1796137366041948  12.48053461752728  120.000000
5.743565543071161  0.000000  0.000000  0.000000  -40.083031151653856  14.12236260433816  13.623311217713287  56.09014368626649  15.752841540039606  11.427288596228072  10.941312640234734  50.27313346525213  -3.3728616855050313  12.388102786496175  120.000000
5.7837303370786515  0.000000  0.000000  0.000000  -39.3762726776427  13.671843556834734  11.751229711222315  56.23397653242075  15.202084583098136  10.612147084555195  11.96236104909337  48.81235847613111  -3.440980481777518  12.325993387356789  120.000000
5.823895131086142  0.000000  0.000000  0.000000  -38.638148221409814  13.101239439071763  9.748164852632604  56.331701156685135  14.614798974364607  9.84202506055388  12.97206738470647  47.22886437289704  -3.357482749846882  12.28677157641874  120.000000
5.864059925093633  0.000000  0.000000  0.000000  -37.881501834852784  12.406350369326937  7.647800590771686  56.37063246391586  14.008555649730436  9.13160605673446  13.946455769707923  45.53835624382918  -3.0963622324455695  12.261051279851866  120.000000
5.904224719101124  0.000000  0.000000  0.000000  -37.1147793350161  11.589092385433954  5.485894968442184  56.3429712146993  13.404051975706272  8.490429759935527  14.858899079880814  43.75377589768118  -2.634093584965699  12.23956827116388  120.000000
5.944389513108614  0.000000  0.000000  0.000000  -36.34125329973797  10.65719949514033  3.2988636162967344  56.24627564368464  12.823594691987376  7.922834291220218  15.681138731820404  41.88539308697762  -1.9515178825934332  12.214621140330964  120.000000
5.984554307116105  0.000000  0.000000  0.000000  -35.558883914313554  9.623565149379564  1.122674635546553  56.08344503930011  12.289564106882171  7.428352947862014  16.384535178019373  39.94174721076885  -1.0349658135526114  12.180979366981079  120.000000
6.024719101123596  0.000000  0.000000  0.000000  -34.76106999032199  8.505266645477416  -1.0080434156009979  55.86218178682983  11.822954905477452  7.002642707420107  16.94138938997735  37.93110987313224  0.12345407279621591  12.136563674053903  120.000000
6.064883895131086  0.000000  0.000000  0.000000  -33.938481754676445  7.32253782489968  -3.0607577894135067  55.59410469825045  11.441858550292894  6.638652634271669  17.326253092511482  35.86345457437289  1.5260734255666448  12.082878544241193  120.000000
6.1050486891385765  0.000000  0.000000  0.000000  -33.08200086285613  6.0979574500972635  -5.005828777652986  55.29358404803984  11.160219055980898  6.327897779755527  17.51720107629746  33.752755080873094  3.1702792773558146  12.025230211158036  120.000000
6.145213483146067  0.000000  0.000000  0.000000  -32.185844717874204  4.855846051264223  -6.81758740812882  54.9765344250637  10.986910836693651  6.0613541533166  17.496791771458344  31.619065883929064  5.049344200968159  11.972424592027508  120.000000
6.185378277153558  0.000000  0.000000  0.000000  -31.25052569953237  3.6214953937096785  -8.475576141610384  54.65908738273754  10.925128043830052  5.830262758854212  17.2531049134295  29.489430340037483  7.153075549358924  11.935984275590979  120.000000
6.225543071161049  0.000000  0.000000  0.000000  -30.28368729977359  2.4201119635478108  -9.965932293938666  54.35650323024869  10.972682027683698  5.626487397237621  16.780863268991332  27.39688372575901  9.467968375784887  11.92898395977052  120.000000
6.265707865168539  0.000000  0.000000  0.000000  -29.298260281687302  1.275031756150714  -11.281565050113628  54.08246964905155  11.122153903677567  5.442191767508647  16.08294415720081  25.37672025146313  11.976453128849942  11.964736092068463  120.000000
6.30587265917603  0.000000  0.000000  0.000000  -28.309154656844118  0.20466311668917297  -12.421475570911706  53.847868171479185  11.361317019996807  5.270427601403345  15.171385848115555  23.460266415663963  14.656065935803827  12.055594733704565  120.000000
6.346037453183521  0.000000  0.000000  0.000000  -27.328919306262797  -0.7796902390918253  -13.389895393419696  53.66084013721252  11.674947061779653  5.105533459071933  14.068396059340492  21.669177115060727  17.47800029123012  12.211971987776266  120.000000
6.386202247191012  0.000000  0.000000  0.000000  -26.365310633686022  -1.6741003727062551  -14.19449038962986  53.527572971758325  12.046446856989853  4.943268455470861  12.80803775482467  20.013021952755405  20.40460335264459  12.441804191675374  120.000000
6.426367041198501  0.000000  0.000000  0.000000  -25.4218784904158  -2.4805338510529547  -14.844723491123062  53.45248810095089  12.459247348899014  4.780891235002558  11.435649954891854  18.490036979613063  23.3882256067204  12.749621029790614  120.000000
6.466531835205992  0.000000  0.000000  0.000000  -24.500887622873755  -3.203796940698003  -15.351168736489424  53.43785249631323  12.897799720362839  4.616570029282809  10.003926336023856  17.090037541565653  26.37305169922669  13.134965141628525  120.000000
6.506696629213483  0.000000  0.000000  0.000000  -23.607314014919712  -3.849066212041184  -15.725478385461646  53.48213349128333  13.3477397006885  4.449098536608049  8.567274112681053  15.797860858870308  29.29875931352519  13.590755898391762  120.000000
6.546861423220974  0.000000  0.000000  0.000000  -22.751133874094535  -4.420354351393274  -15.98082992442049  53.57929258712373  13.795473972698584  4.2775603380152445  7.178084398193991  14.596104861743376  32.102946080587465  14.102177894796778  120.000000
6.587026217228464  0.000000  0.000000  0.000000  -21.947840678786797  -4.920354332740287  -16.132034047078715  53.71932658273532  14.227006033789829  4.100994648216882  5.886539115487529  13.466849102720918  34.721286356649955  14.646987511374197  120.000000
